<mxfile host="app.diagrams.net" agent="Mozilla/5.0 (Windows NT 10.0; Win64; x64) AppleWebKit/537.36 (KHTML, like Gecko) Chrome/127.0.0.0 Safari/537.36" version="24.7.7">
  <diagram name="Page-1" id="fAhlBguKMYDsA-A6rJFV">
    <mxGraphModel dx="794" dy="446" grid="1" gridSize="10" guides="1" tooltips="1" connect="1" arrows="1" fold="1" page="1" pageScale="1" pageWidth="827" pageHeight="1169" math="0" shadow="0">
      <root>
        <mxCell id="0" />
        <mxCell id="1" parent="0" />
        <mxCell id="8uvinQhuuLh3otFgvrHD-1" value="" style="whiteSpace=wrap;html=1;aspect=fixed;" vertex="1" parent="1">
          <mxGeometry x="210" y="30" width="530" height="530" as="geometry" />
        </mxCell>
        <mxCell id="8uvinQhuuLh3otFgvrHD-2" value="" style="whiteSpace=wrap;html=1;aspect=fixed;" vertex="1" parent="1">
          <mxGeometry x="260" y="90" width="435" height="435" as="geometry" />
        </mxCell>
        <mxCell id="8uvinQhuuLh3otFgvrHD-3" value="Users" style="rounded=1;whiteSpace=wrap;html=1;" vertex="1" parent="1">
          <mxGeometry x="100" y="260" width="120" height="60" as="geometry" />
        </mxCell>
        <mxCell id="8uvinQhuuLh3otFgvrHD-5" value="API GATEWAY" style="rounded=1;whiteSpace=wrap;html=1;" vertex="1" parent="1">
          <mxGeometry x="320" y="265" width="120" height="60" as="geometry" />
        </mxCell>
        <mxCell id="8uvinQhuuLh3otFgvrHD-6" value="EKS Service" style="rounded=1;whiteSpace=wrap;html=1;" vertex="1" parent="1">
          <mxGeometry x="490" y="120" width="180" height="330" as="geometry" />
        </mxCell>
        <mxCell id="8uvinQhuuLh3otFgvrHD-7" value="Microfrontend" style="rounded=1;whiteSpace=wrap;html=1;" vertex="1" parent="1">
          <mxGeometry x="450" y="320" width="80" height="60" as="geometry" />
        </mxCell>
        <mxCell id="8uvinQhuuLh3otFgvrHD-8" value="waf rules" style="rounded=1;whiteSpace=wrap;html=1;" vertex="1" parent="1">
          <mxGeometry x="230" y="270" width="90" height="40" as="geometry" />
        </mxCell>
        <mxCell id="8uvinQhuuLh3otFgvrHD-9" value="rating" style="rounded=1;whiteSpace=wrap;html=1;" vertex="1" parent="1">
          <mxGeometry x="540" y="150" width="120" height="60" as="geometry" />
        </mxCell>
        <mxCell id="8uvinQhuuLh3otFgvrHD-10" value="usermgmt" style="rounded=1;whiteSpace=wrap;html=1;" vertex="1" parent="1">
          <mxGeometry x="540" y="350" width="120" height="60" as="geometry" />
        </mxCell>
        <mxCell id="8uvinQhuuLh3otFgvrHD-11" value="contract" style="rounded=1;whiteSpace=wrap;html=1;" vertex="1" parent="1">
          <mxGeometry x="540" y="220" width="120" height="60" as="geometry" />
        </mxCell>
        <mxCell id="8uvinQhuuLh3otFgvrHD-12" value="lambda" style="rounded=1;whiteSpace=wrap;html=1;" vertex="1" parent="1">
          <mxGeometry x="360" y="140" width="120" height="60" as="geometry" />
        </mxCell>
        <mxCell id="8uvinQhuuLh3otFgvrHD-14" value="sqs/sns notification" style="rounded=1;whiteSpace=wrap;html=1;" vertex="1" parent="1">
          <mxGeometry x="354" y="70" width="120" height="60" as="geometry" />
        </mxCell>
        <mxCell id="8uvinQhuuLh3otFgvrHD-15" value="" style="endArrow=none;html=1;rounded=0;entryX=0.422;entryY=1.033;entryDx=0;entryDy=0;entryPerimeter=0;exitX=0.75;exitY=0;exitDx=0;exitDy=0;" edge="1" parent="1" source="8uvinQhuuLh3otFgvrHD-5" target="8uvinQhuuLh3otFgvrHD-12">
          <mxGeometry width="50" height="50" relative="1" as="geometry">
            <mxPoint x="380" y="270" as="sourcePoint" />
            <mxPoint x="430" y="220" as="targetPoint" />
          </mxGeometry>
        </mxCell>
        <mxCell id="8uvinQhuuLh3otFgvrHD-16" value="RDS" style="rounded=1;whiteSpace=wrap;html=1;" vertex="1" parent="1">
          <mxGeometry x="500" y="460" width="120" height="60" as="geometry" />
        </mxCell>
      </root>
    </mxGraphModel>
  </diagram>
</mxfile>
